<svg xmlns="http://www.w3.org/2000/svg" version="1.1" xmlns:xlink="http://www.w3.org/1999/xlink" xmlns:svgjs="http://svgjs.com/svgjs" width="512" height="512" x="0" y="0" viewBox="0 0 512 512" style="enable-background:new 0 0 512 512" xml:space="preserve" class=""><g><linearGradient id="a" x1="74.98" x2="437.02" y1="74.98" y2="437.02" gradientUnits="userSpaceOnUse"><stop stop-opacity="1" stop-color="#db2727" offset="0"></stop><stop stop-opacity="1" stop-color="#db2727" offset="1"></stop></linearGradient><g data-name="Layer 2"><g data-name="04.trash"><circle cx="256" cy="256" r="256" fill="url(#a)" data-original="url(#a)" class=""></circle><path fill="#ffffff" d="M347.67 154.94v-.05h-42v-13.78A20.11 20.11 0 0 0 285.55 121h-59.1a20.11 20.11 0 0 0-20.11 20.11v13.78h-42v.05a26.86 26.86 0 0 0-25.24 26.81v.83a26.86 26.86 0 0 0 25.24 26.81v142.53A39.08 39.08 0 0 0 203.41 391h105.18a39.08 39.08 0 0 0 39.08-39.08V209.39a26.86 26.86 0 0 0 25.24-26.81v-.83a26.86 26.86 0 0 0-25.24-26.81zM234.22 330.43a11.8 11.8 0 0 1-11.8 11.81 11.81 11.81 0 0 1-11.81-11.81v-90a11.81 11.81 0 0 1 11.81-11.81 11.8 11.8 0 0 1 11.8 11.81zm67.17 0a11.81 11.81 0 0 1-11.81 11.81 11.8 11.8 0 0 1-11.8-11.81v-90a11.8 11.8 0 0 1 11.8-11.81 11.81 11.81 0 0 1 11.81 11.81z" data-original="#ffffff" class=""></path></g></g></g></svg>