<svg xmlns="http://www.w3.org/2000/svg" version="1.1" xmlns:xlink="http://www.w3.org/1999/xlink" xmlns:svgjs="http://svgjs.com/svgjs" width="512" height="512" x="0" y="0" viewBox="0 0 24 24" style="enable-background:new 0 0 512 512" xml:space="preserve" class=""><g transform="matrix(1.1500000000000004,0,0,1.1500000000000004,-1.7996075391769413,-1.7992654681205806)"><g data-name="map succes"><path fill="#142e4c" d="M17.612 4.299A7.997 7.997 0 0 0 6.16 15.46a45.877 45.877 0 0 1 4.812 5.8l.195.294a1 1 0 0 0 1.664 0l.198-.297a30.396 30.396 0 0 1 4.446-5.433A8.021 8.021 0 0 0 20 10a7.94 7.94 0 0 0-2.388-5.701z" data-original="#00a79d" class=""></path><circle cx="12" cy="10" r="3" fill="#ffe700" data-original="#0cecdd" class=""></circle></g></g></svg>