<svg xmlns="http://www.w3.org/2000/svg" version="1.1" xmlns:xlink="http://www.w3.org/1999/xlink" xmlns:svgjs="http://svgjs.com/svgjs" width="512" height="512" x="0" y="0" viewBox="0 0 48 48" style="enable-background:new 0 0 512 512" xml:space="preserve" class=""><g><linearGradient id="b" x1="24" x2="24" y1="37" y2="15" gradientUnits="userSpaceOnUse"><stop offset="0" stop-color="#d3e6f5"></stop><stop offset="1" stop-color="#f0f7fc"></stop></linearGradient><linearGradient id="a" x1="24" x2="24" y1="17" y2="11" gradientUnits="userSpaceOnUse"><stop stop-opacity="1" stop-color="#173e61" offset="0"></stop><stop stop-opacity="1" stop-color="#11304c" offset="1"></stop></linearGradient><linearGradient xlink:href="#a" id="c" x1="13" x2="35" y1="23" y2="23"></linearGradient><g fill="#d7e9f7"><path d="M2 8a1 1 0 0 1-1-1V4a3 3 0 0 1 3-3h3a1 1 0 0 1 0 2H4a1 1 0 0 0-1 1v3a1 1 0 0 1-1 1zM13 3h-2a1 1 0 0 1 0-2h2a1 1 0 0 1 0 2zM19 3h-2a1 1 0 0 1 0-2h2a1 1 0 0 1 0 2zM46 8a1 1 0 0 1-1-1V4a1 1 0 0 0-1-1h-3a1 1 0 0 1 0-2h3a3 3 0 0 1 3 3v3a1 1 0 0 1-1 1zM37 3h-2a1 1 0 0 1 0-2h2a1 1 0 0 1 0 2zM31 3h-2a1 1 0 0 1 0-2h2a1 1 0 0 1 0 2zM25 3h-2a1 1 0 0 1 0-2h2a1 1 0 0 1 0 2zM2 40a1 1 0 0 0-1 1v3a3 3 0 0 0 3 3h3a1 1 0 0 0 0-2H4a1 1 0 0 1-1-1v-3a1 1 0 0 0-1-1zM13 45h-2a1 1 0 0 0 0 2h2a1 1 0 0 0 0-2zM19 45h-2a1 1 0 0 0 0 2h2a1 1 0 0 0 0-2zM46 40a1 1 0 0 0-1 1v3a1 1 0 0 1-1 1h-3a1 1 0 0 0 0 2h3a3 3 0 0 0 3-3v-3a1 1 0 0 0-1-1zM37 45h-2a1 1 0 0 0 0 2h2a1 1 0 0 0 0-2zM31 45h-2a1 1 0 0 0 0 2h2a1 1 0 0 0 0-2zM25 45h-2a1 1 0 0 0 0 2h2a1 1 0 0 0 0-2zM3 13v-2a1 1 0 0 0-2 0v2a1 1 0 0 0 2 0zM3 19v-2a1 1 0 0 0-2 0v2a1 1 0 0 0 2 0zM3 37v-2a1 1 0 0 0-2 0v2a1 1 0 0 0 2 0zM3 31v-2a1 1 0 0 0-2 0v2a1 1 0 0 0 2 0zM3 25v-2a1 1 0 0 0-2 0v2a1 1 0 0 0 2 0zM45 35v2a1 1 0 0 0 2 0v-2a1 1 0 0 0-2 0zM45 29v2a1 1 0 0 0 2 0v-2a1 1 0 0 0-2 0zM45 11v2a1 1 0 0 0 2 0v-2a1 1 0 0 0-2 0zM45 17v2a1 1 0 0 0 2 0v-2a1 1 0 0 0-2 0zM45 23v2a1 1 0 0 0 2 0v-2a1 1 0 0 0-2 0z" fill="#d7e9f7" data-original="#d7e9f7" class=""></path></g><path fill="url(#b)" d="M11 15h26v20a2 2 0 0 1-2 2H13a2 2 0 0 1-2-2V15z" data-original="url(#b)" class=""></path><path fill="url(#a)" d="M37 13v2H23.41a1 1 0 0 0-.7.29c-1.55 1.55-1.6 1.71-2.12 1.71H11v-4a2 2 0 0 1 2-2h22a2 2 0 0 1 2 2z" data-original="url(#a)" class=""></path><circle cx="18" cy="14" r="1" fill="#12c4ab" data-original="#54a5ff" class=""></circle><circle cx="14" cy="14" r="1" fill="#12c4ab" data-original="#54a5ff" class=""></circle><rect width="22" height="6" x="13" y="20" fill="url(#c)" rx="1" data-original="url(#c)" class=""></rect><path fill="#b4cde1" d="M34 30H14a1 1 0 0 1 0-2h20a1 1 0 0 1 0 2zM34 34H14a1 1 0 0 1 0-2h20a1 1 0 0 1 0 2z" data-original="#b4cde1" class=""></path><path fill="#d5c000" d="M10.71 9.29 9.41 8l.3-.29a1 1 0 0 0-.39-1.66l-3-1a1 1 0 0 0-1.27 1.27l1 3A1 1 0 0 0 7 10a1.34 1.34 0 0 0 1-.59l1.29 1.3A1 1 0 0 0 10 11a1 1 0 0 0 .71-1.71zM37.29 9.29 38.59 8l-.3-.29a1 1 0 0 1 .39-1.66l3-1A1 1 0 0 1 43 6.32l-1 3a1 1 0 0 1-1 .68 1.34 1.34 0 0 1-1-.59l-1.29 1.3A1 1 0 0 1 38 11a1 1 0 0 1-.71-1.71zM10.71 38.71 9.41 40l.3.29A1 1 0 0 1 9.32 42l-3 1a1 1 0 0 1-1.27-1.27l1-3A1 1 0 0 1 7 38a1.34 1.34 0 0 1 1 .59l1.29-1.3A1 1 0 0 1 10 37a1 1 0 0 1 .71 1.71zM37.29 38.71l1.3 1.29-.3.29a1 1 0 0 0 .39 1.71l3 1A1 1 0 0 0 43 41.68l-1-3a1 1 0 0 0-1-.68 1.34 1.34 0 0 0-1 .59l-1.29-1.3A1 1 0 0 0 38 37a1 1 0 0 0-.71 1.71z" data-original="#ffb369" class=""></path></g></svg>