<?xml version="1.0" encoding="utf-8"?>
<!-- Generator: Adobe Illustrator 27.0.0, SVG Export Plug-In . SVG Version: 6.00 Build 0)  -->
<svg version="1.1" id="Capa_1" xmlns="http://www.w3.org/2000/svg" xmlns:xlink="http://www.w3.org/1999/xlink" x="0px" y="0px"
	 viewBox="0 0 484 490" style="enable-background:new 0 0 484 490;" xml:space="preserve">
<style type="text/css">
	.st0{fill:#FEFEFE;}
</style>
<g>
	<path d="M261.3,489.7c-12.9,0-25.8,0-38.7,0c-3-31.3-25.8-37.6-51.4-46c-61.8-20.3-104.7-63.2-125-125c-8.4-25.5-14.7-48.4-46-51.4
		c0-12.9,0-25.8,0-38.7c31.3-3,37.6-25.8,46-51.4c20.3-61.8,63.2-104.7,125-125c25.5-8.4,48.4-14.7,51.4-46c12.9,0,25.8,0,38.7,0
		c3,31.3,25.8,37.6,51.4,46c61.8,20.3,104.7,63.2,125,125c8.4,25.5,14.7,48.4,46,51.4c0,12.9,0,25.8,0,38.7
		c-31.3,3-37.6,25.8-46,51.4c-20.3,61.8-63.2,104.7-125,125C287.2,452.1,264.3,458.4,261.3,489.7z"/>
	<path class="st0" d="M222.7,6.3c0,0.8-0.1,1.6,0,2.4c3.6,25-2.1,37.1-31.9,44.2C116.5,70.7,68.5,120.6,46.5,194.2
		c-10.3,34.3-9.8,34.4-46.2,34.4c0-74.1,0-148.2,0-222.3C74.4,6.3,148.6,6.3,222.7,6.3z"/>
	<path class="st0" d="M483.7,228.7c-0.8,0-1.6-0.1-2.4,0c-25.1,3.6-37.2-2.2-44.3-31.8c-17.7-74.4-67.6-122.3-141.2-144.4
		c-34.3-10.2-34.4-9.8-34.4-46.2c70.1,0,140.2,0.3,210.2-0.3C482,5.9,484.1,8,484,18.4C483.4,88.5,483.7,158.6,483.7,228.7z"/>
	<path class="st0" d="M0.3,267.3c0.8,0,1.6,0.1,2.4,0c25.1-3.6,37.2,2.1,44.3,31.8c17.7,74.4,67.7,122.2,141.3,144.3
		c34.2,10.3,34.4,9.8,34.4,46.2c-69.7,0-139.4-0.3-209.1,0.3C2.2,490.1-0.1,487.8,0,476.4C0.7,406.7,0.3,337,0.3,267.3z"/>
	<path class="st0" d="M261.3,489.7c0-0.8,0.1-1.6,0-2.4c-3.6-25.1,2.2-37.3,31.8-44.3c74.4-17.7,122.3-67.7,144.3-141.3
		c10.2-34.2,9.8-34.4,46.2-34.4c0,69.7-0.3,139.4,0.3,209.1c0.1,11.3-2.2,13.7-13.6,13.6C400.7,489.3,331,489.7,261.3,489.7z"/>
	<path class="st0" d="M79.7,269.3c11-5.3,26.5,6.1,28.1-17.5c1.7-25.5-12.6-23.8-28.2-24.3c12.5-78.6,62.8-129,141.5-141.9
		c3,12.3-3.8,28.8,21.9,28.3c25.6-0.5,16.2-17.2,19.2-28.4c78.9,12.6,129.1,62.6,142.1,141.5c-12.2,3.1-28.1-3.7-28.4,21.9
		c-0.3,27.4,19,14.1,28.3,20.4c-12.4,77.7-62.4,127.8-141.7,141c1.5-18.8-2.5-29.7-26.3-28c-22.9,1.6-8.8,17.8-14.8,25.6
		C152.9,407.1,92.6,348.3,79.7,269.3z"/>
	<path d="M309.5,247.3c0.3,36.9-30,67.8-66.9,68.2c-36.8,0.4-67.8-30-68.2-66.9c-0.4-36.8,30-67.8,66.9-68.2
		C278.2,180.1,309.2,210.4,309.5,247.3z"/>
</g>
</svg>
